{
    "accessors" : [
        {
            "bufferView" : 0,
            "componentType" : 5125,
            "count" : 7824,
            "max" : [
                4407
            ],
            "min" : [
                0
            ],
            "type" : "SCALAR"
        },
        {
            "bufferView" : 1,
            "componentType" : 5126,
            "count" : 4408,
            "max" : [
                0.9853982329368591,
                3.5999655723571777,
                0.9716541171073914
            ],
            "min" : [
                -0.9853982329368591,
                -4.156879285233117e-08,
                -0.9854676723480225
            ],
            "type" : "VEC3"
        },
        {
            "bufferView" : 2,
            "componentType" : 5126,
            "count" : 4408,
            "max" : [
                1.0,
                1.0,
                1.0
            ],
            "min" : [
                -1.0,
                -1.0,
                -1.0
            ],
            "type" : "VEC3"
        },
        {
            "bufferView" : 3,
            "componentType" : 5126,
            "count" : 4408,
            "max" : [
                1.0,
                1.0,
                1.0,
                1.0
            ],
            "min" : [
                -1.0,
                -1.0,
                -1.0,
                -1.0
            ],
            "type" : "VEC4"
        },
        {
            "bufferView" : 4,
            "componentType" : 5126,
            "count" : 4408,
            "max" : [
                1.0,
                1.0
            ],
            "min" : [
                0.0,
                0.0
            ],
            "type" : "VEC2"
        }
    ],
    "asset" : {
        "generator" : "Khronos Blender glTF 2.0 exporter",
        "version" : "2.0"
    },
    "bufferViews" : [
        {
            "buffer" : 0,
            "byteLength" : 31296,
            "byteOffset" : 0,
            "target" : 34963
        },
        {
            "buffer" : 0,
            "byteLength" : 52896,
            "byteOffset" : 31296,
            "target" : 34962
        },
        {
            "buffer" : 0,
            "byteLength" : 52896,
            "byteOffset" : 84192,
            "target" : 34962
        },
        {
            "buffer" : 0,
            "byteLength" : 70528,
            "byteOffset" : 137088,
            "target" : 34962
        },
        {
            "buffer" : 0,
            "byteLength" : 35264,
            "byteOffset" : 207616,
            "target" : 34962
        }
    ],
    "buffers" : [
        {
            "byteLength" : 242880,
            "uri" : "chair_metal.bin"
        }
    ],
    "materials" : [
        {
            "name" : "metal_MAT",
            "pbrMetallicRoughness" : {
                "baseColorFactor" : [
                    0.09542209648224853,
                    0.09542209648224853,
                    0.09542209648224853,
                    1.0
                ],
                "metallicFactor" : 0.0
            }
        }
    ],
    "meshes" : [
        {
            "name" : "Plane.009",
            "primitives" : [
                {
                    "attributes" : {
                        "NORMAL" : 2,
                        "POSITION" : 1,
                        "TANGENT" : 3,
                        "TEXCOORD_0" : 4
                    },
                    "indices" : 0,
                    "material" : 0
                }
            ]
        }
    ],
    "nodes" : [
        {
            "mesh" : 0,
            "name" : "Chaise Garden",
            "translation" : [
                0.0,
                0.0,
                -1.1920928955078125e-07
            ]
        }
    ],
    "scene" : 0,
    "scenes" : [
        {
            "name" : "Scene",
            "nodes" : [
                0
            ]
        }
    ]
}
